<svg width="16" height="16" viewBox="0 0 16 16" fill="none" xmlns="http://www.w3.org/2000/svg">
<path d="M8.00001 14.6666C4.31801 14.6666 1.33334 11.682 1.33334 7.99998C1.33334 4.31798 4.31801 1.33331 8.00001 1.33331C11.682 1.33331 14.6667 4.31798 14.6667 7.99998C14.6667 11.682 11.682 14.6666 8.00001 14.6666ZM6.00001 7.33331C5.63182 6.96512 5.03487 6.96512 4.66668 7.33331C4.29849 7.7015 4.29849 8.29846 4.66668 8.66665L6.5926 10.5926C7.0017 11.0017 7.66498 11.0017 8.07408 10.5926L11.3333 7.33331C11.7015 6.96512 11.7015 6.36817 11.3333 5.99998C10.9652 5.63179 10.3682 5.63179 10 5.99998L7.44145 8.55854C7.38175 8.61825 7.28494 8.61824 7.22524 8.55854L6.00001 7.33331Z" fill="#3BDBC9"/>
</svg>
